<svg width="212" height="304" viewBox="0 0 212 304" fill="none" xmlns="http://www.w3.org/2000/svg">
<path d="M62.5 286C-3.49803 286 -57 232.498 -57 166.5C-57 100.502 -3.49803 47 62.5 47C128.498 47 182 100.502 182 166.5C182 232.498 128.498 286 62.5 286Z" fill="white"/>
<path d="M75 302C0.441544 302 -60 241.335 -60 166.5C-60 91.6654 0.441544 31 75 31C149.558 31 210 91.6654 210 166.5C210 241.335 149.558 302 75 302Z" stroke="white" stroke-width="3" stroke-miterlimit="10"/>
<path d="M173.5 146C154.446 146 139 130.778 139 112C139 93.2223 154.446 78 173.5 78C192.554 78 208 93.2223 208 112C208 130.778 192.554 146 173.5 146Z" fill="#00C996"/>
<path d="M104 42C92.402 42 83 32.598 83 21C83 9.40202 92.402 0 104 0C115.598 0 125 9.40202 125 21C125 32.598 115.598 42 104 42Z" fill="#0B9AD6"/>
<path d="M4 75C-9.25484 75 -20 64.2548 -20 51C-20 37.7452 -9.25484 27 4 27C17.2548 27 28 37.7452 28 51C28 64.2548 17.2548 75 4 75Z" fill="#8656CD"/>
<path d="M182 257C177.029 257 173 253.194 173 248.5C173 243.806 177.029 240 182 240C186.971 240 191 243.806 191 248.5C191 253.194 186.971 257 182 257Z" fill="#8656CD"/>
<path d="M78.7971 165.616C78.7971 165.616 77.3189 175.548 73.2416 180.972L71.029 213.557L94.0145 248.931L83.9179 251.875C83.9179 251.875 56.43 221.153 55.1836 216.501C53.9372 211.849 52.9227 181.745 52.9227 181.745L26.9131 198.5L42.7585 230.776L34.372 236.056C34.372 236.056 11.0773 201.454 11.8503 194.475C12.6232 187.497 46.488 161.205 46.488 161.205L51.773 151.998L78.7971 165.616Z" fill="#9E4040"/>
<path d="M94.0144 248.941L98.4492 257.338L90.5458 262H74.285C74.285 262 75.3671 256.701 82.1014 257.782L83.9178 251.885L94.0144 248.941Z" fill="#2E1905"/>
<path d="M42.7585 230.786L49.6764 235.892C49.6764 235.892 36.5943 254.095 34.7972 253.555C33.0001 253.014 37.0967 243.343 37.0967 243.343L34.3624 236.065L42.7489 230.786H42.7585Z" fill="#3F210B"/>
<path d="M97.1353 118.573C97.1353 118.573 103.396 129.209 102.874 131.217C102.353 133.225 101.628 149.575 101.628 149.575L85.6667 145.425L78.4783 169.728L48.7005 154.497L64.3816 129.644L62.3623 118.351C62.3623 118.351 78.0435 116.952 79.4831 116.855C91.8116 116.054 97.1353 118.583 97.1353 118.583V118.573Z" fill="#57772C"/>
<path d="M96.6039 90.2544C91.3962 94.675 83.8503 105.379 83.9373 107.946C84.0339 110.581 89.3382 112.039 89.3382 112.039L86.4783 116.826C84.8551 119.529 86.0146 123.042 88.9228 124.268C91.2416 125.242 93.9179 124.412 95.2899 122.308L96.0049 121.198L110.324 99.1342L96.6039 90.2544Z" fill="#AB7B5B"/>
<path d="M88.6039 113.265L89.3382 112.048C92.0628 113.081 94.9904 113.873 94.9904 113.873C94.9904 113.873 92.2947 113.93 88.6039 113.274V113.265Z" fill="#654630"/>
<path d="M93.2127 84.0771C94.1595 83.8744 95.2127 84.0578 95.9276 84.6562C97.2416 85.7469 97.7924 87.9089 97.7924 87.9089L108.111 91.4512C110.797 92.3778 113.957 93.4588 114.855 96.5281C115.3 98.0627 114.72 99.9641 113.261 100.611C114.044 101.798 114.102 104.124 113.503 105.417C112.903 106.711 111.86 107.744 110.759 108.651C107.57 111.266 103.599 113.583 99.3383 116.063C99.3383 116.063 98.9711 112.541 98.9325 111.199C98.8938 109.857 96.7296 107.242 96.7296 107.242C97.9276 107.3 99.174 107.348 100.295 106.923C101.416 106.498 102.401 105.466 102.382 104.269C102.362 103.12 101.416 102.145 100.333 101.75C99.2513 101.354 98.0629 101.431 96.9131 101.566C95.2127 101.769 95.0001 102.937 93.7151 104.076C93.9856 102.155 94.7682 100.418 96.1209 99.0279C93.5315 96.9624 92.0919 93.7097 91.203 90.5246C90.8648 89.3085 90.604 88.0248 90.8552 86.7893C91.1064 85.5539 91.9856 84.3667 93.2223 84.0964L93.2127 84.0771Z" fill="#2E1905"/>
<path d="M62.3526 118.341L51.4251 119.432L27.4058 114.693L29.1352 121.594C29.1352 121.594 50.285 128.833 52.2947 128.92C55.4637 129.055 64.3719 129.634 64.3719 129.634L62.3526 118.341Z" fill="#AB7B5B"/>
<path d="M95.8695 181.938L39.3478 128.775L43.5217 184.959L57.6086 169.728L95.8695 181.938Z" fill="#1D71D3"/>
<path d="M28.7488 90.293C28.971 89.907 28.8454 89.4147 28.4589 89.1927L27.57 88.6715C27.1836 88.4495 26.7005 88.575 26.4686 88.9611C26.2464 89.3471 26.372 89.8297 26.7584 90.0614L27.6473 90.5826C28.0338 90.8046 28.5169 90.6791 28.7488 90.293Z" fill="#FCFFF8"/>
<path d="M26.9323 91.4802L27.8792 89.8683C27.9758 89.7043 27.9178 89.4823 27.7536 89.3857C27.5893 89.2892 27.3671 89.3471 27.2705 89.5112L26.3236 91.1231C26.227 91.2872 26.285 91.5092 26.4492 91.6057C26.6135 91.7022 26.8357 91.6443 26.9323 91.4802Z" fill="#FCFFF8"/>
<path d="M25.9469 89.1638C26.1691 88.7777 26.0435 88.2951 25.657 88.0634L24.7682 87.5422C24.3817 87.3202 23.8986 87.4457 23.6667 87.8318C23.4445 88.2179 23.5701 88.7101 23.9566 88.9321L24.8454 89.4533C25.2319 89.6753 25.715 89.5498 25.9469 89.1638Z" fill="#FCFFF8"/>
<path d="M24.1305 90.3509L25.0773 88.7391C25.1739 88.575 25.116 88.353 24.9517 88.2565C24.7875 88.16 24.5652 88.2179 24.4686 88.382L23.5218 89.9938C23.4251 90.1579 23.4831 90.3799 23.6474 90.4764C23.8116 90.5729 24.0338 90.515 24.1305 90.3509Z" fill="#FCFFF8"/>
<path d="M23.1352 88.0345C23.3575 87.6484 23.2319 87.1658 22.8454 86.9342L21.9565 86.413C21.57 86.191 21.0869 86.3165 20.8551 86.7025C20.6328 87.0886 20.7584 87.5712 21.1449 87.8028L22.0338 88.324C22.4203 88.546 22.9034 88.4206 23.1352 88.0345Z" fill="#FCFFF8"/>
<path d="M21.3285 89.2217L22.2753 87.6098C22.3719 87.4457 22.314 87.2237 22.1497 87.1272C21.9855 87.0307 21.7632 87.0886 21.6666 87.2527L20.7198 88.8645C20.6231 89.0286 20.6811 89.2506 20.8454 89.3471C21.0096 89.4437 21.2318 89.3857 21.3285 89.2217Z" fill="#FCFFF8"/>
<path d="M20.3334 86.9052C20.5556 86.5191 20.43 86.0365 20.0435 85.8049L19.1546 85.2837C18.7682 85.0617 18.2851 85.1872 18.0532 85.5733C17.831 85.9593 17.9566 86.4419 18.343 86.6736L19.2319 87.1948C19.6184 87.4168 20.1111 87.2913 20.3334 86.9052Z" fill="#FCFFF8"/>
<path d="M18.5169 88.0924L19.4638 86.4805C19.5604 86.3165 19.5024 86.0945 19.3382 85.9979C19.1739 85.9014 18.9517 85.9593 18.8551 86.1234L17.9082 87.7353C17.8116 87.8994 17.8696 88.1214 18.0338 88.2179C18.1981 88.3144 18.4203 88.2565 18.5169 88.0924Z" fill="#FCFFF8"/>
<path d="M17.5314 85.7759C17.7536 85.3899 17.628 84.8976 17.2415 84.6756L16.3526 84.1544C15.9662 83.9324 15.4831 84.0579 15.2512 84.444C15.029 84.8301 15.1546 85.3127 15.541 85.5443L16.4299 86.0655C16.8164 86.2875 17.2995 86.162 17.5314 85.7759Z" fill="#FCFFF8"/>
<path d="M15.7149 86.9631L16.6618 85.3513C16.7584 85.1872 16.7004 84.9652 16.5362 84.8687C16.3719 84.7721 16.1497 84.8301 16.0531 84.9941L15.1062 86.606C15.0096 86.7701 15.0676 86.9921 15.2318 87.0886C15.3961 87.1851 15.6183 87.1272 15.7149 86.9631Z" fill="#FCFFF8"/>
<path d="M49.7246 143.938L26.5942 95.0031L27.9082 91.4126L14.4492 85.9883L11 86.9535L22.3043 96.5764L43.7729 145.425L49.7246 143.938Z" fill="#1D71D3"/>
<path d="M50.4396 142.568L42.4976 145.84L44.1304 150.347L52.4879 146.853L50.4396 142.568Z" fill="#626262"/>
<path d="M69.4155 171.658L56.9711 168.01L50.7875 174.708L56.2754 165.143L69.4155 171.658Z" fill="#FCFFF8"/>
<path d="M56.4493 167.016C56.4493 167.016 56.5362 167.016 56.5749 166.987C56.7294 166.919 56.7971 166.736 56.7294 166.581L25.0869 96.171C25.0193 96.0166 24.8357 95.949 24.6811 96.0166C24.5265 96.0842 24.4589 96.2675 24.5265 96.422L56.1691 166.832C56.2174 166.948 56.3333 167.016 56.4493 167.016Z" fill="#000042"/>
<path d="M55.1449 168.84C55.1449 168.84 55.2319 168.84 55.2705 168.811C55.4251 168.744 55.4928 168.56 55.4251 168.406L23.7536 96.6922C23.686 96.5378 23.5121 96.4606 23.3478 96.5378C23.1932 96.6054 23.1256 96.7887 23.1932 96.9432L54.8647 168.657C54.913 168.772 55.029 168.84 55.1449 168.84Z" fill="#000042"/>
<path d="M59.5797 167.885C59.5797 167.885 59.6666 167.884 59.7053 167.856C59.8599 167.788 59.9275 167.605 59.8502 167.45L26.0918 95.6402C26.0145 95.4857 25.8309 95.4182 25.686 95.4954C25.5314 95.563 25.4637 95.7463 25.541 95.9008L59.2995 167.701C59.3478 167.817 59.4637 167.875 59.5797 167.875V167.885Z" fill="#000042"/>
<path d="M85.657 145.425L82.0628 151.631L59.9082 153.339C59.9082 153.339 52.7101 148.117 52.3526 148.677C51.9951 149.247 50.1304 150.453 50.1304 150.453C50.1304 150.453 47.6859 150.154 46.9613 150.453C46.2463 150.752 45.8792 152.326 45.8792 152.326C45.8792 152.326 47.5314 158.358 48.6811 158.937C49.8309 159.516 60.0434 158.937 60.0434 158.937C60.0434 158.937 85.5024 163.532 87.0869 162.238C88.6715 160.945 95.8599 147.828 95.8599 147.828L85.6473 145.415L85.657 145.425Z" fill="#AB7B5B"/>
<path d="M29.8986 113.863L32.4686 111.373L31.7633 110.234L29.4831 111.025L33.5121 108.052L32.8068 104.549C32.8068 104.549 25.0966 103.844 24.7488 104.115C24.401 104.375 23.8696 111.489 23.8696 112.048C23.8696 112.608 24.5652 119.471 29.1256 121.594L30.5266 115.311L29.8889 113.863H29.8986Z" fill="#AB7B5B"/>
<path d="M78.4106 255.485C80.3623 255.485 83.7343 252.464 84.1208 252.107L84.4299 251.827L84.0628 251.615C82.6908 250.833 78.1691 248.41 77.3188 249.887C77.1932 250.099 77.1932 250.331 77.2995 250.543C77.686 251.277 79.8695 251.711 81.6473 251.952C79.8792 252.319 77.6473 252.956 77.1932 253.921C77.0386 254.24 77.0676 254.578 77.2705 254.896C77.4734 255.215 77.7922 255.417 78.1787 255.475C78.256 255.475 78.3236 255.485 78.4009 255.485H78.4106ZM82.9227 252.338C81.57 253.448 79.4251 255.022 78.2657 254.867C78.0531 254.838 77.8985 254.742 77.7923 254.578C77.6763 254.394 77.715 254.278 77.7536 254.192C78.1304 253.391 80.8067 252.705 82.9227 252.348V252.338ZM78.3913 250.041C79.2125 250.041 80.7971 250.62 82.4203 251.431C80.1884 251.171 78.0918 250.707 77.8502 250.254C77.9275 250.109 78.1111 250.041 78.3913 250.041Z" fill="black"/>
<path d="M33.1933 243.98C34.9324 243.98 36.8165 243.69 37.145 243.642L37.6184 243.565L37.3479 243.169C36.7102 242.243 33.5121 237.687 31.8986 237.687C31.8793 237.687 31.86 237.687 31.8406 237.687C31.6281 237.697 31.3285 237.803 31.1353 238.189C30.9807 238.498 30.9711 238.845 31.1063 239.212C31.4831 240.274 33.087 241.441 34.517 242.3C32.8648 241.914 30.9904 241.625 30.343 242.136C30.1401 242.291 30.0435 242.522 30.0532 242.783C30.0725 243.034 30.1981 243.266 30.4203 243.439C30.9421 243.854 32.0339 243.98 33.1933 243.98ZM35.6281 243.217C33.8793 243.41 31.4928 243.507 30.7971 242.957C30.6812 242.87 30.6619 242.783 30.6619 242.735C30.6619 242.667 30.6715 242.638 30.7102 242.609C31.2223 242.204 33.5701 242.648 35.6184 243.217H35.6281ZM31.9179 238.295C32.7199 238.295 34.6619 240.505 36.1305 242.513C34.4783 241.635 32.0822 240.148 31.6764 239.009C31.5991 238.797 31.6087 238.623 31.6764 238.459C31.744 238.324 31.8116 238.295 31.8793 238.295H31.9083H31.9179Z" fill="black"/>
<path d="M64.372 129.943C64.4686 129.943 64.5556 129.904 64.6136 129.817L69.657 123.129C69.7633 122.994 69.7343 122.801 69.5991 122.704C69.4638 122.598 69.2706 122.636 69.174 122.762L64.5556 128.891L63.6957 124.104C63.6667 123.939 63.5314 123.833 63.3382 123.862C63.174 123.891 63.0677 124.055 63.0967 124.219L64.0725 129.692C64.0918 129.808 64.1884 129.904 64.3044 129.933C64.3237 129.933 64.3527 129.933 64.372 129.933V129.943Z" fill="#000042"/>
<path d="M36.1208 235.573C36.1208 235.573 36.1884 235.573 36.2174 235.554C38.3237 234.849 40.2947 233.662 41.9082 232.137C42.0338 232.021 42.0338 231.828 41.9179 231.703C41.8019 231.577 41.6087 231.577 41.4831 231.693C39.9372 233.16 38.0435 234.299 36.0242 234.975C35.8599 235.023 35.7826 235.206 35.8309 235.361C35.8696 235.486 35.9952 235.573 36.1208 235.573Z" fill="black"/>
<path d="M84.6135 250.611C84.6135 250.611 84.6618 250.611 84.6908 250.611C87.0289 250.022 89.2318 249.047 91.2318 247.706C91.3768 247.609 91.4154 247.426 91.3188 247.281C91.2318 247.136 91.0386 247.107 90.8937 247.194C88.9516 248.497 86.8164 249.443 84.5458 250.012C84.3816 250.051 84.285 250.225 84.3236 250.379C84.3526 250.514 84.4879 250.611 84.6231 250.611H84.6135Z" fill="black"/>
<path d="M66.1981 216.491C66.1981 216.491 66.2657 216.491 66.3044 216.472C67.6957 215.97 68.942 215.034 69.8309 213.837C69.9275 213.702 69.8986 213.509 69.7633 213.412C68.5652 212.534 66.971 212.245 65.8696 212.109C65.6667 212.08 65.5507 212.206 65.5314 212.37C65.5121 212.534 65.628 212.689 65.7923 212.708C67.2609 212.891 68.343 213.21 69.1353 213.721C68.343 214.696 67.2705 215.468 66.0918 215.893C65.9372 215.951 65.8502 216.125 65.9082 216.289C65.9565 216.414 66.0725 216.491 66.1981 216.491Z" fill="black"/>
<path d="M52.942 180.181C53.116 180.181 53.2512 180.046 53.2512 179.872V176.475C53.2512 176.301 53.116 176.166 52.942 176.166C52.7681 176.166 52.6329 176.301 52.6329 176.475V179.872C52.6329 180.046 52.7681 180.181 52.942 180.181Z" fill="black"/>
</svg>
