<svg width="216" height="314" viewBox="0 0 216 314" fill="none" xmlns="http://www.w3.org/2000/svg">
<path d="M156 286C221.722 286 275 232.498 275 166.5C275 100.502 221.722 47 156 47C90.2781 47 37 100.502 37 166.5C37 232.498 90.2781 286 156 286Z" fill="white"/>
<path d="M143 302C217.558 302 278 241.335 278 166.5C278 91.6654 217.558 31 143 31C68.4416 31 8 91.6654 8 166.5C8 241.335 68.4416 302 143 302Z" stroke="white" stroke-width="3" stroke-miterlimit="10"/>
<path d="M45 146C63.7777 146 79 130.554 79 111.5C79 92.4462 63.7777 77 45 77C26.2223 77 11 92.4462 11 111.5C11 130.554 26.2223 146 45 146Z" fill="#00C996"/>
<path d="M114 42C125.598 42 135 32.598 135 21C135 9.40202 125.598 0 114 0C102.402 0 93 9.40202 93 21C93 32.598 102.402 42 114 42Z" fill="#0B9AD6"/>
<path d="M214.5 75C227.479 75 238 64.2548 238 51C238 37.7452 227.479 27 214.5 27C201.521 27 191 37.7452 191 51C191 64.2548 201.521 75 214.5 75Z" fill="#8656CD"/>
<path d="M37 257C41.9706 257 46 252.971 46 248C46 243.029 41.9706 239 37 239C32.0294 239 28 243.029 28 248C28 252.971 32.0294 257 37 257Z" fill="#8656CD"/>
<path d="M152.615 128.319L156.336 138.415L170.806 157.542L163.986 158.983C163.986 158.983 148.542 143.46 147.605 141.726C146.124 138.989 141.794 131.392 141.794 131.392L152.615 128.325V128.319Z" fill="#F5BF9A"/>
<path d="M132.818 151.953L152.663 186.436C155.745 191.792 153.171 198.63 147.324 200.614L88.7438 220.721L84.3364 202.891L133.684 188.187L105.597 165.36C101.088 161.696 98.7709 155.976 99.4577 150.202L100.121 144.643L125.55 143.364L132.824 151.953H132.818Z" fill="#000042"/>
<path d="M153.559 188.498L176.832 244.015L162.188 249.723L138.258 194.29L153.559 188.498Z" fill="#000042"/>
<path d="M84.3364 202.885L76.6682 204.804C76.6682 204.804 77.5819 231.624 78.842 232.084C80.1022 232.544 82.8493 218.217 82.8493 218.217L89.3768 214.894L84.3304 202.891L84.3364 202.885Z" fill="#000042"/>
<path d="M192.503 257.619C193.255 255.969 177.489 250.213 177.489 250.213L171.791 240.524L162.182 249.723L165.58 257.129" fill="#000042"/>
<path d="M149.701 114.243C147.503 109.623 134.669 95.6896 131.856 93.747C129.276 91.9658 125.848 91.4458 122.928 92.713C120.467 93.7769 118.622 95.8689 116.86 97.8952C113.253 102.037 94.4352 138.146 90.8281 145.779C93.617 149.497 104.223 154.159 113.403 150.931C124.749 146.938 132.83 151.959 132.83 151.959C134.347 141.732 139.996 132.049 139.996 132.049C139.996 132.049 142.552 135.803 145.825 140.901C149.534 136.783 153.828 135.51 157.011 130.955C154.204 126.963 151.068 117.106 149.707 114.243H149.701Z" fill="#1D71D3"/>
<path d="M161.161 92.0136C158.306 97.5844 150.537 104.871 148.238 105.325C145.873 105.791 143.454 101.368 143.454 101.368L141.083 103.663C139.011 105.672 136.831 105.409 135.129 103.066C133.779 101.207 132.913 98.3614 134.502 96.7057L150.567 79.9515C150.567 79.9515 163.956 86.5444 161.155 92.0076L161.161 92.0136Z" fill="#F5BF9A"/>
<path d="M142.516 102.277L143.454 101.368C141.961 99.1564 140.647 96.7057 140.647 96.7057C140.647 96.7057 141.155 99.1206 142.516 102.271V102.277Z" fill="#DE9F73"/>
<path d="M146.362 82.1751L139.99 90.9915L145.938 91.392C145.938 91.392 145.825 86.1858 149.51 89.6705L151.654 86.4428L146.362 82.1751Z" fill="#000042"/>
<path d="M177.489 250.5C177.429 250.5 177.369 250.482 177.316 250.446C177.262 250.404 177.226 250.345 177.208 250.279C177.208 250.279 177.202 250.237 177.202 250.219C177.202 250.219 177.202 250.165 177.214 250.141C177.477 249.018 178.856 243.459 180.26 242.891C180.493 242.801 180.726 242.819 180.929 242.951C181.132 243.082 181.263 243.292 181.305 243.555C181.401 244.116 181.096 244.983 180.624 245.916C181.783 244.69 182.947 243.746 183.658 243.841C183.873 243.877 184.154 244.021 184.285 244.481C185.008 247.021 178.403 250.118 177.614 250.476C177.596 250.488 177.572 250.494 177.555 250.5C177.555 250.5 177.531 250.5 177.519 250.506H177.495L177.489 250.5ZM183.491 244.403C182.631 244.403 180.236 247.075 178.432 249.43C180.678 248.271 184.154 246.125 183.73 244.63C183.67 244.421 183.592 244.409 183.556 244.403C183.539 244.403 183.515 244.403 183.491 244.403ZM180.535 243.411C180.535 243.411 180.493 243.411 180.469 243.423C179.752 243.716 178.779 246.483 178.134 248.832C179.328 247.129 180.899 244.618 180.732 243.65C180.708 243.513 180.648 243.459 180.612 243.435C180.582 243.417 180.559 243.405 180.535 243.405V243.411Z" fill="#000042"/>
<path d="M82.921 225.563C82.6821 225.563 82.4731 225.461 82.3119 225.258C81.3384 224.057 82.4373 218.785 82.5687 218.157C82.5687 218.139 82.5806 218.121 82.5866 218.103C82.5866 218.103 82.5985 218.086 82.5985 218.074C82.6284 218.02 82.6762 217.978 82.7359 217.954H82.7419C82.8016 217.93 82.8673 217.93 82.927 217.954C82.927 217.954 82.9449 217.96 82.9569 217.966C82.9569 217.966 82.9987 217.99 83.0166 218.002C83.9004 218.725 88.2003 222.341 87.3404 223.943C87.1672 224.254 86.9223 224.296 86.785 224.296C85.9608 224.278 84.629 222.18 83.6436 220.399C83.99 222.144 84.2647 224.374 83.6436 225.192C83.4585 225.438 83.2017 225.563 82.9031 225.563H82.921ZM82.8912 219.544C82.5269 221.66 82.2641 224.284 82.7598 224.9C82.8195 224.977 82.8732 224.989 82.921 224.989C83.0405 224.989 83.13 224.941 83.2017 224.846C83.7273 224.152 83.363 221.594 82.8912 219.544ZM83.781 219.401C85.0769 221.833 86.3789 223.716 86.8029 223.716H86.8268C87.2388 222.957 85.5308 220.99 83.787 219.401H83.781Z" fill="#000042"/>
<path d="M140.271 168.953C140.187 168.953 140.104 168.917 140.05 168.845C135.792 163.621 131.235 158.54 126.511 153.729C126.398 153.615 126.404 153.43 126.511 153.322C126.625 153.209 126.81 153.215 126.917 153.322C131.659 158.146 136.228 163.244 140.492 168.48C140.593 168.606 140.575 168.785 140.45 168.887C140.396 168.935 140.331 168.953 140.265 168.953H140.271Z" fill="#FCFFF8"/>
<path d="M144.881 201.415C144.756 201.415 144.636 201.325 144.601 201.194C144.565 201.038 144.654 200.883 144.81 200.847C148.393 199.945 151.618 197.476 153.427 194.248C153.505 194.111 153.678 194.057 153.822 194.141C153.959 194.218 154.007 194.398 153.929 194.535C152.042 197.894 148.686 200.465 144.947 201.409C144.923 201.415 144.899 201.421 144.875 201.421L144.881 201.415Z" fill="#FCFFF8"/>
<path d="M140.725 128.774C140.677 128.774 140.635 128.762 140.593 128.738C140.45 128.666 140.396 128.493 140.474 128.349C142.487 124.494 144.493 120.633 146.506 116.777C146.583 116.634 146.757 116.586 146.894 116.652C147.037 116.724 147.091 116.897 147.019 117.04C145.007 120.902 143 124.757 140.988 128.612C140.94 128.714 140.838 128.768 140.731 128.768L140.725 128.774Z" fill="#000042"/>
<path d="M82.2103 126.084L153.278 153.071L101.984 173.513L109.365 154.553L82.2103 126.084Z" fill="#420000"/>
<path d="M191.732 145.886C191.971 145.528 192.461 145.426 192.825 145.665L193.667 146.227C194.025 146.466 194.127 146.956 193.888 147.321C193.649 147.68 193.16 147.781 192.795 147.542L191.953 146.98C191.595 146.741 191.493 146.251 191.732 145.886Z" fill="#FCFFF8"/>
<path d="M191.464 147.99L192.479 146.466C192.586 146.305 192.801 146.263 192.957 146.371C193.118 146.478 193.16 146.693 193.052 146.849L192.037 148.373C191.929 148.534 191.714 148.576 191.559 148.469C191.398 148.361 191.356 148.146 191.464 147.99Z" fill="#FCFFF8"/>
<path d="M193.93 147.871C194.169 147.512 194.659 147.411 195.023 147.65L195.865 148.212C196.223 148.451 196.325 148.941 196.086 149.305C195.847 149.664 195.357 149.766 194.993 149.527L194.151 148.965C193.793 148.726 193.691 148.236 193.93 147.871Z" fill="#FCFFF8"/>
<path d="M193.661 149.981L194.677 148.457C194.784 148.295 194.999 148.253 195.154 148.361C195.316 148.469 195.357 148.684 195.25 148.839L194.235 150.363C194.127 150.525 193.912 150.567 193.757 150.459C193.596 150.351 193.554 150.136 193.661 149.981Z" fill="#FCFFF8"/>
<path d="M196.128 149.861C196.367 149.503 196.856 149.401 197.221 149.64L198.063 150.202C198.421 150.441 198.522 150.931 198.284 151.296C198.045 151.654 197.555 151.756 197.191 151.517L196.349 150.955C195.99 150.716 195.889 150.226 196.128 149.861Z" fill="#FCFFF8"/>
<path d="M195.859 151.971L196.874 150.447C196.982 150.286 197.197 150.244 197.352 150.351C197.513 150.459 197.555 150.674 197.448 150.83L196.432 152.354C196.325 152.515 196.11 152.557 195.955 152.449C195.793 152.342 195.751 152.127 195.859 151.971Z" fill="#FCFFF8"/>
<path d="M198.325 151.846C198.564 151.487 199.054 151.386 199.418 151.625L200.26 152.186C200.619 152.426 200.72 152.916 200.481 153.28C200.242 153.639 199.753 153.741 199.388 153.501L198.546 152.94C198.188 152.701 198.087 152.21 198.325 151.846Z" fill="#FCFFF8"/>
<path d="M198.057 153.956L199.072 152.432C199.179 152.27 199.394 152.228 199.55 152.336C199.705 152.443 199.753 152.659 199.645 152.814L198.63 154.338C198.523 154.5 198.308 154.542 198.152 154.434C197.991 154.326 197.949 154.111 198.057 153.956Z" fill="#FCFFF8"/>
<path d="M200.523 153.836C200.762 153.478 201.252 153.376 201.616 153.615L202.458 154.177C202.817 154.416 202.918 154.906 202.679 155.271C202.44 155.629 201.951 155.731 201.586 155.492L200.744 154.93C200.386 154.691 200.284 154.201 200.523 153.836Z" fill="#FCFFF8"/>
<path d="M200.254 155.946L201.27 154.422C201.377 154.261 201.592 154.219 201.747 154.326C201.909 154.434 201.95 154.649 201.843 154.804L200.828 156.329C200.72 156.49 200.505 156.532 200.35 156.424C200.195 156.317 200.147 156.102 200.254 155.946Z" fill="#FCFFF8"/>
<path d="M135.469 150.429L188.501 149.808L191.105 147.106L201.652 156.646L202.285 160.094L188.955 154.267L136.712 156.317L135.469 150.429Z" fill="#420000"/>
<path d="M136.371 149.222L136.891 157.62L132.221 158.116L131.719 149.246L136.371 149.222Z" fill="#626262"/>
<path d="M102.605 144.984L111.151 154.38L107.902 162.7L113.976 153.764L102.605 144.984Z" fill="#FCFFF8"/>
<path d="M112.525 154.571C112.369 154.571 112.244 154.446 112.238 154.29C112.238 154.129 112.357 153.998 112.519 153.992L188.131 151.643H188.143C188.298 151.643 188.424 151.768 188.43 151.923C188.43 152.085 188.31 152.216 188.149 152.222L112.537 154.571H112.525Z" fill="#FCFFF8"/>
<path d="M111.474 156.508C111.318 156.508 111.193 156.388 111.187 156.233C111.181 156.072 111.306 155.94 111.462 155.934L188.233 153.053C188.394 153.053 188.525 153.173 188.531 153.328C188.537 153.49 188.412 153.621 188.257 153.627L111.485 156.508H111.474Z" fill="#FCFFF8"/>
<path d="M110.416 152.181C110.261 152.181 110.13 152.055 110.13 151.9C110.13 151.738 110.255 151.607 110.41 151.607L188.155 150.537C188.31 150.537 188.442 150.662 188.442 150.818C188.442 150.979 188.316 151.111 188.161 151.111L110.416 152.181Z" fill="#FCFFF8"/>
<path d="M117.505 116.132L113.576 121.966L121.56 142.216C121.56 142.216 129.246 146.317 128.9 146.873C128.554 147.429 128.291 149.592 128.291 149.592C128.291 149.592 129.599 151.619 129.647 152.378C129.694 153.137 128.452 154.135 128.452 154.135C128.452 154.135 122.426 155.271 121.423 154.5C120.42 153.729 116.556 144.488 116.556 144.488C116.556 144.488 101.596 124.028 102.056 122.079C102.515 120.131 109.957 106.885 109.957 106.885L117.499 116.12L117.505 116.132Z" fill="#F5BF9A"/>
<path d="M170.466 154.996L171.559 151.666L172.86 151.798L173.141 154.141L174.037 149.311L177.423 148.427C177.423 148.427 181.347 154.918 181.263 155.342C181.18 155.767 175.136 159.281 174.646 159.521C174.156 159.76 167.808 162.091 163.98 158.989L168.913 155.062L170.46 155.002L170.466 154.996Z" fill="#F5BF9A"/>
<path d="M108.29 105.582L117.511 116.138C117.511 116.138 134.49 94.8289 128.56 92.2826C120.694 88.9054 108.29 105.582 108.29 105.582Z" fill="#1D71D3"/>
<path d="M118.724 115.564C118.652 115.564 118.586 115.54 118.526 115.486C118.407 115.379 118.401 115.193 118.509 115.08C122.832 110.412 125.998 104.703 127.67 98.5647C127.712 98.4093 127.855 98.3136 128.022 98.3614C128.177 98.4033 128.267 98.5647 128.225 98.7141C126.529 104.942 123.31 110.734 118.933 115.468C118.879 115.528 118.795 115.558 118.724 115.558V115.564Z" fill="#000042"/>
<path d="M128.303 141.272C128.159 141.272 128.04 141.17 128.016 141.027C126.637 131.655 126.684 122.163 128.159 112.82C128.183 112.665 128.321 112.563 128.488 112.581C128.643 112.605 128.751 112.755 128.727 112.91C127.264 122.199 127.21 131.631 128.583 140.943C128.607 141.099 128.5 141.248 128.339 141.272C128.321 141.272 128.309 141.272 128.297 141.272H128.303Z" fill="#000042"/>
<path d="M113.976 169.018C113.862 169.018 113.755 168.947 113.707 168.833C113.647 168.69 113.719 168.516 113.868 168.457L141.686 157.375C141.823 157.315 141.997 157.387 142.062 157.536C142.122 157.68 142.05 157.853 141.901 157.913L114.083 168.994C114.047 169.006 114.012 169.012 113.976 169.012V169.018Z" fill="#FCFFF8"/>
<path d="M106.194 162.987C106.152 162.987 106.111 162.975 106.075 162.963C105.931 162.898 105.866 162.724 105.931 162.581L109.186 155.396L107.968 153.495C107.884 153.364 107.92 153.185 108.057 153.095C108.189 153.017 108.368 153.047 108.458 153.185L109.76 155.223C109.813 155.307 109.819 155.408 109.777 155.498L106.463 162.826C106.415 162.934 106.308 162.993 106.2 162.993L106.194 162.987Z" fill="#FCFFF8"/>
<path d="M151.648 86.4488C151.648 86.4488 155.798 96.4308 168.226 91.2485L164.082 89.8319C164.082 89.8319 172.371 87.2737 168.226 82.4321L162.296 86.407C162.296 86.407 161.794 76.8434 151.606 77.3634C151.606 77.3634 148.823 73.7352 146.327 77.8834C143.83 82.0316 139.978 90.9975 139.978 90.9975L146.751 84.7931L151.642 86.4488H151.648Z" fill="#000042"/>
</svg>
