<svg width="152" height="122" viewBox="0 0 152 122" fill="none" xmlns="http://www.w3.org/2000/svg">
<path d="M46.3964 61C46.3964 60.6477 46.5287 60.3083 46.7633 60.0586L66.7456 38.8034C66.9802 38.5536 67.299 38.4128 67.6299 38.4128H78.7098C79.4015 38.4128 79.9549 39.0083 79.9549 39.7384C79.9549 40.4685 79.3955 41.064 78.7098 41.064H68.1472L49.41 60.9936L54.0657 65.9503C54.5529 66.4691 54.5529 67.308 54.0657 67.8267C53.5785 68.3455 52.7905 68.3455 52.3032 67.8267L46.7633 61.935C46.5287 61.6852 46.3964 61.3458 46.3964 60.9936V61Z" fill="#8656CD" stroke="#8656CD" stroke-miterlimit="10"/>
<path d="M35.124 61C35.124 60.6478 35.2564 60.3084 35.4909 60.0586L63.4614 30.2924C63.696 30.0426 64.0148 29.9017 64.3457 29.9017H86.704C87.3958 29.9017 87.9492 30.4973 87.9492 31.2274C87.9492 31.9574 87.3897 32.553 86.704 32.553H64.863L38.1496 60.9744L48.5739 71.7653C49.0672 72.2776 49.0792 73.1165 48.598 73.6417C48.1168 74.1668 47.3288 74.1796 46.8355 73.6673L35.503 61.9414C35.2624 61.6916 35.13 61.3522 35.124 61Z" fill="#8656CD"/>
<path d="M35.124 61C35.124 60.6478 35.2564 60.3084 35.4909 60.0586L63.4614 30.2924C63.696 30.0426 64.0148 29.9017 64.3457 29.9017H86.704C87.3958 29.9017 87.9492 30.4973 87.9492 31.2274C87.9492 31.9574 87.3897 32.553 86.704 32.553H64.863L38.1496 60.9744L48.5739 71.7653C49.0672 72.2776 49.0792 73.1165 48.598 73.6417C48.1168 74.1668 47.3288 74.1796 46.8355 73.6673L35.503 61.9414C35.2624 61.6916 35.13 61.3522 35.124 61ZM35.124 61V60.9872" stroke="#8656CD" stroke-miterlimit="10"/>
<path d="M71.3052 82.2616C71.3052 81.5252 71.8646 80.936 72.5504 80.936H83.4679L102.482 60.9936L97.5133 55.7038C97.0261 55.1851 97.0261 54.3462 97.5133 53.8274C98.0005 53.3087 98.7885 53.3087 99.2757 53.8274L105.134 60.065C105.369 60.3148 105.525 60.6222 105.501 61.0064C105.501 61.3587 105.369 61.6981 105.128 61.9478L84.8574 83.2095C84.6228 83.4528 84.31 83.5937 83.9792 83.5937H72.5504C71.8586 83.5937 71.3052 82.9981 71.3052 82.2681V82.2616Z" fill="#8656CD" stroke="#8656CD" stroke-miterlimit="10"/>
<path d="M63.305 90.7727C63.305 90.0362 63.8644 89.447 64.5501 89.447L87.0649 89.4342L113.784 61L103.161 49.6904C102.674 49.1716 102.674 48.3327 103.161 47.814C103.649 47.2952 104.437 47.2952 104.924 47.814L116.431 60.0586C116.9 60.5581 116.9 61.4355 116.431 61.935L88.4664 91.7013C88.2318 91.951 87.913 92.0919 87.5822 92.0919L64.5501 92.1047C63.8644 92.1047 63.305 91.5092 63.305 90.7791V90.7727Z" fill="#8656CD" stroke="#8656CD" stroke-miterlimit="10"/>
<path d="M108.635 106.315L150.332 61.935C150.819 61.4163 150.819 60.5773 150.332 60.0586L130.615 39.0724C125.063 33.1614 117.676 29.9017 109.82 29.9017C101.97 29.9017 94.5838 33.155 89.0258 39.0724L55.1124 75.1595C51.6115 78.8866 46.9558 80.9359 42.0114 80.9295C37.0669 80.9295 32.4172 78.8802 28.9224 75.1595L15.5988 60.9936L50.6852 23.6641C64.6464 8.81299 87.3536 8.81299 101.315 23.6641C101.549 23.9139 101.868 24.0547 102.199 24.0547H113.501C114.007 24.0547 114.464 23.7281 114.656 23.235C114.849 22.7419 114.747 22.1719 114.386 21.7877L108.647 15.6782C90.6499 -3.47647 61.3681 -3.47647 43.3708 15.6782L1.66771 60.0586C1.42108 60.3148 1.30078 60.6606 1.30078 61C1.30078 61.3394 1.42108 61.6788 1.66771 61.9414L21.4516 83.0365C26.9374 88.8834 34.2338 92.0983 41.9933 92.0983C49.7408 92.0983 57.0192 88.8834 62.493 83.0557L96.3884 46.9814C99.9734 43.171 104.731 41.0704 109.802 41.0704C114.873 41.0704 119.631 43.171 123.216 46.9814L136.389 61L117.297 81.3202L101.315 98.3295C87.3596 113.181 64.6464 113.187 50.6852 98.3295C50.4506 98.0797 50.1318 97.9388 49.801 97.9388H38.5105C38.0053 97.9388 37.5481 98.2654 37.3556 98.7585C37.1631 99.2517 37.2654 99.8216 37.6263 100.206L43.3648 106.309C61.3621 125.464 90.6439 125.464 108.641 106.309L108.635 106.315ZM45.1272 104.439L41.5181 100.603H49.2897C64.2494 116.101 88.2679 115.966 103.077 100.212L119.059 83.203L139.036 61.9414C139.505 61.4419 139.505 60.5645 139.036 60.065L124.978 45.105C120.924 40.7951 115.535 38.4191 109.802 38.4191C104.07 38.4191 98.6801 40.7951 94.6259 45.105L60.7305 81.1793C55.7259 86.5075 49.0731 89.4406 41.9933 89.447C34.8954 89.447 28.2306 86.5075 23.214 81.1665L4.31437 61L45.1272 17.561C62.1501 -0.556201 89.8499 -0.556201 106.873 17.561L110.482 21.4035H102.704C87.7446 5.90553 63.7261 6.03362 48.9168 21.7877L12.9521 60.0586C12.483 60.5581 12.483 61.4355 12.9521 61.935L27.1539 77.0423C31.1239 81.2626 36.3992 83.5872 42.0114 83.5872C47.6235 83.5872 52.9048 81.2626 56.8808 77.0359L90.7943 40.9488C95.8771 35.5373 102.638 32.5594 109.82 32.5594C117.008 32.5594 123.769 35.5373 128.852 40.9488L147.686 60.9936L106.873 104.433C89.8499 122.55 62.1501 122.55 45.1272 104.433V104.439Z" fill="#8656CD" stroke="#8656CD" stroke-miterlimit="10"/>
</svg>
